<svg xmlns="http://www.w3.org/2000/svg" viewBox="0 0 17.32 20"><defs><style>.cls-1{fill:#999;}</style></defs><title>head-diconnect</title><g id="Layer_2" data-name="Layer 2"><g id="Layer_3" data-name="Layer 3"><path class="cls-1" d="M14.3,4.79a1.45,1.45,0,0,0-.86-.3,1.29,1.29,0,0,0-.78,2.33l.54.41-.07.07a6,6,0,1,1-8.93,0l-.06-.06.52-.4a1.29,1.29,0,0,0-.78-2.33A1.28,1.28,0,0,0,3,4.8a8.57,8.57,0,0,0-3,6.54A8.66,8.66,0,1,0,14.3,4.79Z"/><path class="cls-1" d="M8.66,13.23a1.4,1.4,0,0,0,1.39-1.4V1.39a1.39,1.39,0,0,0-2.78,0V11.83A1.4,1.4,0,0,0,8.66,13.23Z"/></g></g></svg>