<svg xmlns="http://www.w3.org/2000/svg" viewBox="0 0 369.15 269.7"><defs><style>.cls-1{fill:#9dcc8e;}</style></defs><title>logo_siloxane</title><g id="Layer_2" data-name="Layer 2"><g id="Calque_1" data-name="Calque 1"><polygon class="cls-1" points="369.15 136.07 255.7 22.63 255.7 22.63 248.72 15.65 236.63 3.55 236.63 3.55 233.07 0 100 133.07 100.5 133.57 100.45 133.63 152.07 185.26 174.7 162.63 174.7 162.63 219.07 118.26 229.95 129.13 135.57 223.5 45.2 133.13 132.07 46.26 146.86 61.04 169.49 38.41 132.07 1 109.45 23.63 109.45 23.63 0 133.07 0.06 133.13 0 133.18 132.52 265.7 132.98 265.24 136.03 268.3 252.57 151.75 252.57 151.76 273.82 130.51 274.15 130.18 274.15 130.18 275.2 129.13 241.7 95.63 241.85 95.48 219.22 72.85 152.07 140 145.2 133.13 233.07 45.26 324.45 136.63 214 247.07 236.63 269.7 369.15 137.18 368.59 136.63 369.15 136.07"/></g></g></svg>