<svg xmlns="http://www.w3.org/2000/svg" viewBox="0 0 834.69 84.37"><defs><style>.cls-1{fill:#69f;}.cls-2{fill:#6c9;}.cls-3{fill:#fc6;}.cls-4{fill:#f6c;}.cls-5{fill:#96f;}.cls-6{fill:#f96;}.cls-7{fill:#c4450e;}.cls-8{fill:#1c59ba;}.cls-9{fill:#0a994d;}.cls-10{fill:#bf8010;}.cls-11{fill:#c92b9c;}</style></defs><title>logo_webvax</title><g id="Layer_2" data-name="Layer 2"><g id="Layer_2_copy_5" data-name="Layer 2 copy 5"><path class="cls-1" d="M12.8,84.37,0,18.51H12.89l8.47,44.78h.28L36.79,18.51h6.4L58.33,63.29h.29l8.46-44.78H79.69L66.89,84.37H53.72L40.17,43.44h-.56L26,84.37Z"/><path class="cls-2" d="M184.14,84.37V18.51h41.68V30.27h-29V45h26.35V56.33H196.84V72.61h29V84.37Z"/><path class="cls-3" d="M332.62,84.37V18.51h27.94c5.83,0,10.54,1.69,14,5.17a16.5,16.5,0,0,1,5.36,12.51,13.57,13.57,0,0,1-7.15,12.52v.09c5.65,2.35,9.6,7.81,9.6,15.06,0,6.3-1.88,11.29-5.74,15s-10.16,5.46-18.91,5.46ZM345.32,45H359c5.18,0,8.28-2.45,8.28-7.25,0-5-3-7.52-8.28-7.52H345.32Zm0,27.57h15.34q9,0,9-8.75c0-5.37-3.39-8.47-8.94-8.47H345.32Z"/><path class="cls-4" d="M670.5,84.37l-3.76-10.82H641.62l-3.77,10.82h-12.6l23.8-65.86h10.82l23.71,65.86ZM654.13,37.32,645.19,63h18l-8.84-25.69Z"/><path class="cls-5" d="M779.09,84.37l20.6-35.47L781.91,18.51H796.4l11.85,22.67h.19l12-22.67h14L815.4,51.34l19.29,33H820.2L806.94,59.06h-.19L793.11,84.37Z"/><polygon class="cls-6" points="523.62 18.51 507.81 65.27 507.53 65.27 513.62 83.39 536.79 18.51 523.62 18.51"/><polygon class="cls-7" points="471.36 0 501.7 84.37 513.27 84.37 513.62 83.39 485.36 0 471.36 0"/><path class="cls-8" d="M12.8,84.37,0,18.51H12.89l8.47,44.78h.28L26,84.37Z"/><path class="cls-8" d="M43.19,18.51,58.33,63.29h.29l-4.9,21.08L40.17,43.44h-.56Z"/><path class="cls-9" d="M184.14,84.37V18.51h12.35l.35,11.76V72.61l-.23,11.76Z"/><path class="cls-10" d="M332.62,84.37V18.51H345l.37,65.86Z"/><path class="cls-11" d="M641.62,73.55l-3.77,10.82h-12.6l23.8-65.86h10.82Z"/><path d="M779.09,84.37l20.6-35.47L781.91,18.51H796.4l11.85,22.67h.19l-1.5,17.88h-.19L793.11,84.37Z"/></g></g></svg>