<svg xmlns="http://www.w3.org/2000/svg" viewBox="0 0 40 37.45"><defs><style>.cls-1{fill:#fff;}</style></defs><title>tabbord-requetes</title><g id="Layer_2" data-name="Layer 2"><g id="Icons"><path class="cls-1" d="M39,8.81H1.05A1,1,0,0,1,0,7.76V1.05A1,1,0,0,1,1.05,0H39a1,1,0,0,1,1,1.05V7.76A1,1,0,0,1,39,8.81ZM2.11,6.7H37.89V2.11H2.11Z"/><path class="cls-1" d="M39,30.53H17.81V28.42H37.89V8.81H2.11V28.42h9.56v2.11H1.05a1.06,1.06,0,0,1-1-1.06V7.76A1.05,1.05,0,0,1,1.05,6.7H39a1.05,1.05,0,0,1,1,1.06V29.47A1.06,1.06,0,0,1,39,30.53Z"/><rect class="cls-1" x="3.6" y="3.35" width="3.51" height="2.11"/><rect class="cls-1" x="9.04" y="3.35" width="3.51" height="2.11"/><rect class="cls-1" x="32.72" y="3.35" width="3.51" height="2.11"/><rect class="cls-1" x="4.47" y="11.82" width="7.37" height="2.11"/><rect class="cls-1" x="17.46" y="11.82" width="5.09" height="2.11"/><rect class="cls-1" x="17.46" y="16.05" width="9.65" height="2.11"/><rect class="cls-1" x="4.47" y="16.05" width="7.37" height="2.11"/><rect class="cls-1" x="4.47" y="20.53" width="7.37" height="2.11"/><rect class="cls-1" x="4.47" y="24.91" width="7.37" height="2.11"/><rect class="cls-1" x="17.46" y="20.53" width="17.11" height="2.11"/><rect class="cls-1" x="17.46" y="24.91" width="17.11" height="2.11"/><path class="cls-1" d="M32.25,18.66a4.61,4.61,0,1,1,4.6-4.6A4.61,4.61,0,0,1,32.25,18.66Zm0-7.1a2.5,2.5,0,1,0,2.5,2.5A2.5,2.5,0,0,0,32.25,11.56Z"/><rect class="cls-1" x="13.6" y="12.31" width="2.11" height="24.08"/><path class="cls-1" d="M14.66,37.45h0a1.12,1.12,0,0,1-.75-.33L10.47,33.5,12,32.05l2.69,2.84L17.61,32l1.47,1.5L15.4,37.15A1.07,1.07,0,0,1,14.66,37.45Z"/></g></g></svg>