<svg xmlns="http://www.w3.org/2000/svg" viewBox="0 0 36.27 40"><defs><style>.cls-1{fill:#fff;}</style></defs><title>tabbord-recherche</title><g id="Layer_2" data-name="Layer 2"><g id="Icons"><path class="cls-1" d="M13,23.92A12,12,0,0,1,7.23,1.49h0A12,12,0,0,1,20.61,21.2a12.12,12.12,0,0,1-1.8,1.22,11.56,11.56,0,0,1-2,.88A11.91,11.91,0,0,1,13,23.92ZM8.1,3.06A10.17,10.17,0,0,0,16.24,21.6a9.91,9.91,0,0,0,3.24-1.79A10.17,10.17,0,0,0,8.1,3.06Z"/><path class="cls-1" d="M13,21A9.07,9.07,0,1,1,21,7.57h0A9.07,9.07,0,0,1,13,21ZM13,4.68a7.28,7.28,0,1,0,6.38,3.75A7.25,7.25,0,0,0,13,4.68Z"/><path class="cls-1" d="M8.51,10.62l-1.6-.81A9.07,9.07,0,0,1,10.61,6l.87,1.57A7.29,7.29,0,0,0,8.51,10.62Z"/><path class="cls-1" d="M18.3,26.55a.9.9,0,0,1-.79-.47l-1.77-3.2a.89.89,0,0,1,0-.78.91.91,0,0,1,.59-.51A7.12,7.12,0,0,0,18,20.91a7.39,7.39,0,0,0,1.47-1.06.89.89,0,0,1,.75-.23.9.9,0,0,1,.64.45l1.77,3.2a1,1,0,0,1,.08.68.93.93,0,0,1-.43.54l-3.52,1.94A.88.88,0,0,1,18.3,26.55ZM17.83,23l.82,1.47,2-1.08-.82-1.47a9.33,9.33,0,0,1-.94.6A8.51,8.51,0,0,1,17.83,23Z"/><path class="cls-1" d="M25.74,40a.89.89,0,0,1-.78-.46l-2.28-4.12A.89.89,0,0,1,23,34.21l3.52-2a.9.9,0,0,1,.68-.08.88.88,0,0,1,.53.43L30,36.72a.92.92,0,0,1,.08.69.91.91,0,0,1-.43.53l-3.52,2A.92.92,0,0,1,25.74,40Zm-1.06-4.66,1.41,2.55L28,36.81l-1.41-2.55Z"/><path class="cls-1" d="M18.26,30.83a.89.89,0,0,1-.79-.46L16.1,27.89a1.77,1.77,0,0,1,.7-2.43l5.64-3.13a1.82,1.82,0,0,1,1.37-.15,1.75,1.75,0,0,1,1.07.85l1.37,2.48a.92.92,0,0,1,.08.69.91.91,0,0,1-.43.53l-7.21,4A.86.86,0,0,1,18.26,30.83Zm5-6.93L17.67,27l.94,1.7,5.64-3.12-.94-1.7Z"/><path class="cls-1" d="M22,36.59a1.8,1.8,0,0,1-1.57-.93h0l-1.18-2.12a.91.91,0,0,1,.35-1.22l7.22-4a1,1,0,0,1,.68-.08.88.88,0,0,1,.53.43l1.18,2.12a1.82,1.82,0,0,1,.15,1.37,1.75,1.75,0,0,1-.85,1.07l-5.65,3.12A1.79,1.79,0,0,1,22,36.59Zm0-1.8h0l5.64-3.12-.74-1.34-5.64,3.13Z"/><path class="cls-1" d="M20,34a.92.92,0,0,1-.79-.46l-1.75-3.17a.89.89,0,0,1-.07-.68.87.87,0,0,1,.42-.54l7.21-4a.9.9,0,0,1,1.22.35L28,28.68a.85.85,0,0,1,.08.68.89.89,0,0,1-.43.54l-7.21,4A.84.84,0,0,1,20,34Zm-.54-3.71.89,1.6L26,28.77l-.88-1.6Z"/><rect class="cls-1" x="27.06" y="7.59" width="9.22" height="1.79"/><rect class="cls-1" x="31.66" y="14.18" width="4.61" height="1.79"/><rect class="cls-1" x="27.22" y="14.18" width="2.04" height="1.79"/><rect class="cls-1" y="25.58" width="11.05" height="1.79"/><rect class="cls-1" x="2.99" y="31" width="4.48" height="1.79"/><rect class="cls-1" x="9.96" y="31" width="5.11" height="1.79"/><rect class="cls-1" x="29.26" y="22.57" width="7.02" height="1.79"/></g></g></svg>