<svg xmlns="http://www.w3.org/2000/svg" viewBox="0 0 40 33.89"><defs><style>.cls-1{fill:#fff;}</style></defs><title>tabbord-dossiers</title><g id="Layer_2" data-name="Layer 2"><g id="Icons"><path class="cls-1" d="M31.52,33.89H2.33A2.34,2.34,0,0,1,0,31.56V5.91a2.42,2.42,0,0,1,.05-.47A2.33,2.33,0,0,1,2.33,3.58h14.6v2H2.33A.33.33,0,0,0,2,5.84V31.56a.32.32,0,0,0,.32.32H31.52a.32.32,0,0,0,.32-.32V28.73h2v2.83A2.33,2.33,0,0,1,31.52,33.89Z"/><path class="cls-1" d="M1,6.64a1,1,0,0,1-1-.77A1.72,1.72,0,0,1,0,5.43V1.89A1.89,1.89,0,0,1,1.89,0H16a1.89,1.89,0,0,1,1.89,1.89V4.58a1,1,0,0,1-1,1H2.33A.33.33,0,0,0,2,5.84a1,1,0,0,1-1,.8ZM2,2V3.6a1.67,1.67,0,0,1,.32,0H15.92V2Z"/><path class="cls-1" d="M33.85,12h-2V3.36H17.93v.22h7v2h-8a1,1,0,0,1-1-1V2.8a1.45,1.45,0,0,1,1.45-1.45h15A1.45,1.45,0,0,1,33.85,2.8Z"/><path class="cls-1" d="M7.44,30.82H4.14a1,1,0,0,1-1-1V26.74h2v2.07h2.3Z"/><path class="cls-1" d="M32.85,27.15A7.15,7.15,0,1,1,40,20,7.15,7.15,0,0,1,32.85,27.15Zm0-12.29A5.15,5.15,0,1,0,38,20,5.15,5.15,0,0,0,32.85,14.86Z"/><path class="cls-1" d="M32.13,23.31a1,1,0,0,1-.72-.3L29.22,20.8a1,1,0,1,1,1.42-1.41l1.45,1.45L35,17.56a1,1,0,1,1,1.49,1.34L32.88,23a1.06,1.06,0,0,1-.73.33Z"/></g></g></svg>