<?xml version="1.0" encoding="utf-8"?>
<!-- Generator: Adobe Illustrator 22.0.1, SVG Export Plug-In . SVG Version: 6.00 Build 0)  -->
<svg version="1.1" id="Layer_1" xmlns="http://www.w3.org/2000/svg" xmlns:xlink="http://www.w3.org/1999/xlink" x="0px" y="0px"
	 viewBox="0 0 38.5 40" style="enable-background:new 0 0 38.5 40;" xml:space="preserve">
<style type="text/css">
	.st0{fill:#FFFFFF;}
</style>
<title>tabbord-alert</title>
<g id="Layer_2_1_">
	<g id="Icons">
		<path class="st0" d="M37.5,40H1c-0.4,0-0.7-0.2-0.9-0.5c-0.2-0.3-0.2-0.7-0.1-1L18.3,0.6C18.5,0.2,18.9,0,19.3,0
			c0.4,0,0.8,0.2,0.9,0.6l18.2,37.9c0.2,0.3,0.2,0.7,0,1C38.2,39.8,37.9,40,37.5,40z M2.7,37.9h33.2L19.3,3.4L2.7,37.9z"/>
		<rect x="18.2" y="12.1" class="st0" width="2.1" height="17.6"/>
		<rect x="18.2" y="32.3" class="st0" width="2.1" height="3.4"/>
	</g>
</g>
</svg>
