<svg xmlns="http://www.w3.org/2000/svg" viewBox="0 0 56.25 73.45"><defs><style>.cls-1{fill:#fff;}</style></defs><title>tabbord-bilans</title><g id="Layer_2" data-name="Layer 2"><g id="Icons"><path class="cls-1" d="M47.72,20.42H36.84a2,2,0,0,1-2-2V9.18a2,2,0,0,1,3.29-1.52L49,16.89a2,2,0,0,1-1.29,3.53Zm-8.88-4h3.43L38.84,13.5Z"/><path class="cls-1" d="M47.72,73.45H2a2,2,0,0,1-2-2V9.18a2,2,0,0,1,2-2H36.84a2,2,0,0,1,1.29.48L49,16.89a2,2,0,0,1,.71,1.53v53A2,2,0,0,1,47.72,73.45ZM4,69.45H45.72V19.34L36.1,11.18H4Z"/><path class="cls-1" d="M54.25,66.92H51.64v-4h.61V4H10.75V5.92h-4V2a2,2,0,0,1,2-2h45.5a2,2,0,0,1,2,2V64.92A2,2,0,0,1,54.25,66.92Z"/><path class="cls-1" d="M14.72,32.4a9.51,9.51,0,1,1,9.51-9.51A9.53,9.53,0,0,1,14.72,32.4Zm0-15a5.51,5.51,0,1,0,5.51,5.51A5.51,5.51,0,0,0,14.72,17.38Z"/><path class="cls-1" d="M27.69,25.77h-12a2,2,0,0,1,0-4h12a2,2,0,0,1,0,4Z"/><rect class="cls-1" x="14.72" y="37.39" width="25.38" height="4"/><rect class="cls-1" x="8.75" y="45.28" width="31.35" height="4"/><rect class="cls-1" x="8.75" y="52.9" width="31.35" height="4"/><rect class="cls-1" x="8.75" y="61.18" width="31.35" height="4"/></g></g></svg>