<svg xmlns="http://www.w3.org/2000/svg" viewBox="0 0 40 33.22"><defs><style>.cls-1{fill:#fff;}</style></defs><title>tabbord-mesdossiers</title><g id="Layer_2" data-name="Layer 2"><g id="Icons"><path class="cls-1" d="M30.9,33.22H2.28A2.29,2.29,0,0,1,0,30.94V5.79a2.42,2.42,0,0,1,.05-.47A2.3,2.3,0,0,1,2.28,3.5H16.59v2H2.28a.31.31,0,0,0-.3.25.2.2,0,0,0,0,.07V30.94a.31.31,0,0,0,.31.31H30.9a.31.31,0,0,0,.32-.31V28.16h2v2.78A2.29,2.29,0,0,1,30.9,33.22Z"/><path class="cls-1" d="M1,6.51a1,1,0,0,1-.95-.75A1.72,1.72,0,0,1,0,5.32V1.85A1.85,1.85,0,0,1,1.85,0H15.73a1.85,1.85,0,0,1,1.85,1.85V4.49a1,1,0,0,1-1,1H2.28a.31.31,0,0,0-.3.25A1,1,0,0,1,1,6.51ZM2,2V3.53a1.63,1.63,0,0,1,.31,0H15.61V2Z"/><path class="cls-1" d="M33.19,9.9h-2V3.3H17.58v.2H24.4v2H16.59a1,1,0,0,1-1-1V2.75A1.41,1.41,0,0,1,17,1.33H31.77a1.42,1.42,0,0,1,1.42,1.42Z"/><path class="cls-1" d="M32.28,26.53a1,1,0,0,1-.7-.29l-6-6.06a.39.39,0,0,1-.08-.1,5.07,5.07,0,0,1-1.08-3.15,5.18,5.18,0,0,1,7.8-4.47A5.18,5.18,0,0,1,40,16.93a5.12,5.12,0,0,1-1.07,3.15l-.08.09L33,26.23a1,1,0,0,1-.7.3ZM27,18.84l5.27,5.3,5.13-5.3a3.21,3.21,0,0,0-2.58-5.12,3.14,3.14,0,0,0-2,.7,1,1,0,0,1-1.23,0A3.21,3.21,0,0,0,27,18.84Z"/><path class="cls-1" d="M28.14,17l-1.55-1.21a7,7,0,0,1,2.84-2.16l.75,1.82A5,5,0,0,0,28.14,17Z"/><path class="cls-1" d="M7.13,30.22H3.89a1,1,0,0,1-1-1v-3h2v2H7.13Z"/></g></g></svg>